#Comment line ignore any data following # character 
#Hierarchical Translation and Rotation (.htr) file 
[Header]	
#Header keywords are followed by a single value 
FileType HTR		#Single word string
DataType HTRS		#Translation followed by rotation and scale data
FileVersion 1		#integer
NumSegments 84		#integer
NumFrames 2		#integer
DataFrameRate 30		#integer, data frame rate in this file
EulerRotationOrder ZYX
CalibrationUnits mm
RotationUnits Degrees
GlobalAxisofGravity Y
BoneLengthAxis Y
ScaleFactor 1.00
[SegmentNames&Hierarchy]
#CHILD	PARENT
MASTER GLOBAL
root MASTER
chest root
L_mid_tent01 root
R_mid_tent01 root
spine01 root
Bip01_Neck chest
L_humerus chest
R_humerus chest
weapon_bone chest
Bip01_Head Bip01_Neck
eye_left_bone Bip01_Head
eye_right_bone Bip01_Head
L_forearm L_humerus
L_front_hand L_forearm
L_weapon_bone L_forearm
L_front_hand01_01 L_front_hand
L_front_hand02_01 L_front_hand
L_front_hand03_01 L_front_hand
L_front_hand01_02 L_front_hand01_01
L_front_hand02_02 L_front_hand02_01
L_front_hand03_02 L_front_hand03_01
R_forearm R_humerus
R_front_hand R_forearm
R_weapon_bone R_forearm
R_front_hand01_01 R_front_hand
R_front_hand02_01 R_front_hand
R_front_hand03_01 R_front_hand
R_front_hand01_02 R_front_hand01_01
R_front_hand02_02 R_front_hand02_01
R_front_hand03_02 R_front_hand03_01
null_rope01_connect L_mid_tent01
Rope1_Seg01 null_rope01_connect
Rope1_Seg02 Rope1_Seg01
Rope1_Seg03 Rope1_Seg02
Rope1_Seg04 Rope1_Seg03
Rope1_Seg05 Rope1_Seg04
Rope1_Seg06 Rope1_Seg05
Rope1_Seg07 Rope1_Seg06
Rope1_Seg09 Rope1_Seg07
L_mid_hand01 Rope1_Seg09
L_mid_hand02 Rope1_Seg09
L_mid_hand03 Rope1_Seg09
null_rope02_connect R_mid_tent01
Rope2_Seg01 null_rope02_connect
Rope2_Seg02 Rope2_Seg01
Rope2_Seg03 Rope2_Seg02
Rope2_Seg04 Rope2_Seg03
Rope2_Seg05 Rope2_Seg04
Rope2_Seg06 Rope2_Seg05
Rope2_Seg07 Rope2_Seg06
Rope2_Seg09 Rope2_Seg07
R_mid_hand01 Rope2_Seg09
R_mid_hand02 Rope2_Seg09
R_mid_hand03 Rope2_Seg09
spine02 spine01
spine03 spine02
pelvis spine03
null_rope03_connect pelvis
null_rope04_connect pelvis
Rope3_Seg01 null_rope03_connect
Rope3_Seg02 Rope3_Seg01
Rope3_Seg03 Rope3_Seg02
Rope3_Seg04 Rope3_Seg03
Rope3_Seg05 Rope3_Seg04
Rope3_Seg06 Rope3_Seg05
Rope3_Seg07 Rope3_Seg06
Rope3_Seg08 Rope3_Seg07
Rope3_Seg09 Rope3_Seg08
R_rear_hand01 Rope3_Seg09
R_rear_hand02 Rope3_Seg09
R_rear_hand03 Rope3_Seg09
Rope4_Seg01 null_rope04_connect
Rope4_Seg02 Rope4_Seg01
Rope4_Seg03 Rope4_Seg02
Rope4_Seg04 Rope4_Seg03
Rope4_Seg05 Rope4_Seg04
Rope4_Seg06 Rope4_Seg05
Rope4_Seg07 Rope4_Seg06
Rope4_Seg08 Rope4_Seg07
Rope4_Seg09 Rope4_Seg08
L_rear_hand01 Rope4_Seg09
L_rear_hand02 Rope4_Seg09
L_rear_hand03 Rope4_Seg09
[BasePosition]
#SegmentName Tx, Ty, Tz, Rx, Ry, Rz, BoneLength
MASTER 0.000000 0.000000 0.000000 -90.000000 0.000000 0.000000 10.000000 
root 0.000000 0.000000 0.000000 0.000000 0.000000 0.000000 10.000000 
chest 0.000000 0.000000 0.000000 0.000000 0.000000 0.000000 10.000000 
L_mid_tent01 0.000000 0.000000 0.000000 0.000000 0.000000 0.000000 10.000000 
R_mid_tent01 0.000000 0.000000 0.000000 0.000000 0.000000 0.000000 10.000000 
spine01 0.000000 0.000000 0.000000 0.000000 0.000000 0.000000 10.000000 
Bip01_Neck 0.000000 0.000000 0.000000 0.000000 0.000000 0.000000 10.000000 
L_humerus 0.000000 0.000000 0.000000 0.000000 0.000000 0.000000 10.000000 
R_humerus 0.000000 0.000000 0.000000 0.000000 0.000000 0.000000 10.000000 
weapon_bone 0.000000 0.000000 0.000000 0.000000 0.000000 0.000000 10.000000 
Bip01_Head 0.000000 0.000000 0.000000 0.000000 0.000000 0.000000 10.000000 
eye_left_bone 0.000000 0.000000 0.000000 0.000000 0.000000 0.000000 10.000000 
eye_right_bone 0.000000 0.000000 0.000000 0.000000 0.000000 0.000000 10.000000 
L_forearm 0.000000 0.000000 0.000000 0.000000 0.000000 0.000000 10.000000 
L_front_hand 0.000000 0.000000 0.000000 0.000000 0.000000 0.000000 10.000000 
L_weapon_bone 0.000000 0.000000 0.000000 0.000000 0.000000 0.000000 10.000000 
L_front_hand01_01 0.000000 0.000000 0.000000 0.000000 0.000000 0.000000 10.000000 
L_front_hand02_01 0.000000 0.000000 0.000000 0.000000 0.000000 0.000000 10.000000 
L_front_hand03_01 0.000000 0.000000 0.000000 0.000000 0.000000 0.000000 10.000000 
L_front_hand01_02 0.000000 0.000000 0.000000 0.000000 0.000000 0.000000 10.000000 
L_front_hand02_02 0.000000 0.000000 0.000000 0.000000 0.000000 0.000000 10.000000 
L_front_hand03_02 0.000000 0.000000 0.000000 0.000000 0.000000 0.000000 10.000000 
R_forearm 0.000000 0.000000 0.000000 0.000000 0.000000 0.000000 10.000000 
R_front_hand 0.000000 0.000000 0.000000 0.000000 0.000000 0.000000 10.000000 
R_weapon_bone 0.000000 0.000000 0.000000 0.000000 0.000000 0.000000 10.000000 
R_front_hand01_01 0.000000 0.000000 0.000000 0.000000 0.000000 0.000000 10.000000 
R_front_hand02_01 0.000000 0.000000 0.000000 0.000000 0.000000 0.000000 10.000000 
R_front_hand03_01 0.000000 0.000000 0.000000 0.000000 0.000000 0.000000 10.000000 
R_front_hand01_02 0.000000 0.000000 0.000000 0.000000 0.000000 0.000000 10.000000 
R_front_hand02_02 0.000000 0.000000 0.000000 0.000000 0.000000 0.000000 10.000000 
R_front_hand03_02 0.000000 0.000000 0.000000 0.000000 0.000000 0.000000 10.000000 
null_rope01_connect 0.000000 0.000000 0.000000 0.000000 0.000000 0.000000 10.000000 
Rope1_Seg01 0.000000 0.000000 0.000000 0.000000 0.000000 0.000000 10.000000 
Rope1_Seg02 0.000000 0.000000 0.000000 0.000000 0.000000 0.000000 10.000000 
Rope1_Seg03 0.000000 0.000000 0.000000 0.000000 0.000000 0.000000 10.000000 
Rope1_Seg04 0.000000 0.000000 0.000000 0.000000 0.000000 0.000000 10.000000 
Rope1_Seg05 0.000000 0.000000 0.000000 0.000000 0.000000 0.000000 10.000000 
Rope1_Seg06 0.000000 0.000000 0.000000 0.000000 0.000000 0.000000 10.000000 
Rope1_Seg07 0.000000 0.000000 0.000000 0.000000 0.000000 0.000000 10.000000 
Rope1_Seg09 0.000000 0.000000 0.000000 0.000000 0.000000 0.000000 10.000000 
L_mid_hand01 0.000000 0.000000 0.000000 0.000000 0.000000 0.000000 10.000000 
L_mid_hand02 0.000000 0.000000 0.000000 0.000000 0.000000 0.000000 10.000000 
L_mid_hand03 0.000000 0.000000 0.000000 0.000000 0.000000 0.000000 10.000000 
null_rope02_connect 0.000000 0.000000 0.000000 0.000000 0.000000 0.000000 10.000000 
Rope2_Seg01 0.000000 0.000000 0.000000 0.000000 0.000000 0.000000 10.000000 
Rope2_Seg02 0.000000 0.000000 0.000000 0.000000 0.000000 0.000000 10.000000 
Rope2_Seg03 0.000000 0.000000 0.000000 0.000000 0.000000 0.000000 10.000000 
Rope2_Seg04 0.000000 0.000000 0.000000 0.000000 0.000000 0.000000 10.000000 
Rope2_Seg05 0.000000 0.000000 0.000000 0.000000 0.000000 0.000000 10.000000 
Rope2_Seg06 0.000000 0.000000 0.000000 0.000000 0.000000 0.000000 10.000000 
Rope2_Seg07 0.000000 0.000000 0.000000 0.000000 0.000000 0.000000 10.000000 
Rope2_Seg09 0.000000 0.000000 0.000000 0.000000 0.000000 0.000000 10.000000 
R_mid_hand01 0.000000 0.000000 0.000000 0.000000 0.000000 0.000000 10.000000 
R_mid_hand02 0.000000 0.000000 0.000000 0.000000 0.000000 0.000000 10.000000 
R_mid_hand03 0.000000 0.000000 0.000000 0.000000 0.000000 0.000000 10.000000 
spine02 0.000000 0.000000 0.000000 0.000000 0.000000 0.000000 10.000000 
spine03 0.000000 0.000000 0.000000 0.000000 0.000000 0.000000 10.000000 
pelvis 0.000000 0.000000 0.000000 0.000000 0.000000 0.000000 10.000000 
null_rope03_connect 0.000000 0.000000 0.000000 0.000000 0.000000 0.000000 10.000000 
null_rope04_connect 0.000000 0.000000 0.000000 0.000000 0.000000 0.000000 10.000000 
Rope3_Seg01 0.000000 0.000000 0.000000 0.000000 0.000000 0.000000 10.000000 
Rope3_Seg02 0.000000 0.000000 0.000000 0.000000 0.000000 0.000000 10.000000 
Rope3_Seg03 0.000000 0.000000 0.000000 0.000000 0.000000 0.000000 10.000000 
Rope3_Seg04 0.000000 0.000000 0.000000 0.000000 0.000000 0.000000 10.000000 
Rope3_Seg05 0.000000 0.000000 0.000000 0.000000 0.000000 0.000000 10.000000 
Rope3_Seg06 0.000000 0.000000 0.000000 0.000000 0.000000 0.000000 10.000000 
Rope3_Seg07 0.000000 0.000000 0.000000 0.000000 0.000000 0.000000 10.000000 
Rope3_Seg08 0.000000 0.000000 0.000000 0.000000 0.000000 0.000000 10.000000 
Rope3_Seg09 0.000000 0.000000 0.000000 0.000000 0.000000 0.000000 10.000000 
R_rear_hand01 0.000000 0.000000 0.000000 0.000000 0.000000 0.000000 10.000000 
R_rear_hand02 0.000000 0.000000 0.000000 0.000000 0.000000 0.000000 10.000000 
R_rear_hand03 0.000000 0.000000 0.000000 0.000000 0.000000 0.000000 10.000000 
Rope4_Seg01 0.000000 0.000000 0.000000 0.000000 0.000000 0.000000 10.000000 
Rope4_Seg02 0.000000 0.000000 0.000000 0.000000 0.000000 0.000000 10.000000 
Rope4_Seg03 0.000000 0.000000 0.000000 0.000000 0.000000 0.000000 10.000000 
Rope4_Seg04 0.000000 0.000000 0.000000 0.000000 0.000000 0.000000 10.000000 
Rope4_Seg05 0.000000 0.000000 0.000000 0.000000 0.000000 0.000000 10.000000 
Rope4_Seg06 0.000000 0.000000 0.000000 0.000000 0.000000 0.000000 10.000000 
Rope4_Seg07 0.000000 0.000000 0.000000 0.000000 0.000000 0.000000 10.000000 
Rope4_Seg08 0.000000 0.000000 0.000000 0.000000 0.000000 0.000000 10.000000 
Rope4_Seg09 0.000000 0.000000 0.000000 0.000000 0.000000 0.000000 10.000000 
L_rear_hand01 0.000000 0.000000 0.000000 0.000000 0.000000 0.000000 10.000000 
L_rear_hand02 0.000000 0.000000 0.000000 0.000000 0.000000 0.000000 10.000000 
L_rear_hand03 0.000000 0.000000 0.000000 0.000000 0.000000 0.000000 10.000000 
#Beginning of Data. Separated by tabs
#Fr	Tx	Ty	Tz	Rx	Ry	Rz	SF
[MASTER]
18 0.000000 0.000000 0.000000 0.001660 0.001660 0.001660 0.000000
19 0.000000 0.000000 0.000000 0.001660 0.001660 0.001660 0.000000
[root]
18 -35.249744 -56.833397 1479.845947 -91.629700 -27.676081 -90.148109 1481.356445
19 -36.637230 -54.078232 1488.266724 -91.629700 -27.676081 -90.148109 1489.699463
[chest]
18 -84.512650 -34.090519 0.000000 -1.888050 0.943089 -178.206696 91.129311
19 -84.512650 -34.090519 0.000000 -1.888050 0.943089 -178.206696 91.129311
[L_mid_tent01]
18 27.299578 22.177624 -249.918304 3.251936 32.434479 80.728432 252.381210
19 27.299583 22.177628 -249.918304 3.447222 33.701351 80.926567 252.381210
[R_mid_tent01]
18 23.228794 24.509907 226.238495 161.146606 -43.668774 86.016319 228.744751
19 23.228794 24.509907 226.238495 160.897018 -44.842300 86.684006 228.744751
[spine01]
18 -0.361383 -0.195265 0.000000 0.001845 0.001451 13.654368 0.410763
19 -0.361383 -0.195265 0.000000 0.001845 0.001451 13.654368 0.410763
[Bip01_Neck]
18 165.484543 71.581718 0.000119 176.643677 -1.657967 43.431911 180.302734
19 165.484543 71.581718 0.000119 176.643677 -1.657967 43.431911 180.302734
[L_humerus]
18 -13.983130 -135.272980 -120.471481 156.317398 70.210068 -112.010254 181.680161
19 -13.983130 -135.272980 -120.471481 156.317398 70.210068 -112.010254 181.680161
[R_humerus]
18 -13.983309 -135.273102 125.287651 -172.382263 -66.903831 -92.553993 184.909012
19 -13.983309 -135.273102 125.287651 -172.382263 -66.903831 -92.553993 184.909012
[weapon_bone]
18 235.964890 -300.705902 0.000000 0.000000 -89.951546 -128.212341 382.234833
19 235.964890 -300.705902 0.000000 0.000000 -89.951546 -128.212341 382.234833
[Bip01_Head]
18 213.627014 185.206833 18.341923 4.443141 0.096322 -43.897816 283.327545
19 213.593246 185.300949 17.127447 5.200446 6.151311 -43.834991 283.287598
[eye_left_bone]
18 -24.626970 125.451866 -64.772606 0.000000 -90.000000 -99.840431 143.318359
19 -24.626970 125.451866 -64.772606 0.000000 -90.000000 -99.840431 143.318359
[eye_right_bone]
18 -24.626970 125.451866 64.327362 0.000000 -89.965736 80.156380 143.117676
19 -24.626970 125.451866 64.327362 0.000000 -89.965736 80.156380 143.117676
[L_forearm]
18 322.776093 0.000000 -0.000119 0.000119 -0.002344 -95.807457 322.776093
19 322.776093 0.000000 -0.000119 0.000119 -0.002344 -95.807457 322.776093
[L_front_hand]
18 241.149185 -0.042021 -3.300071 -178.667953 -1.835447 -27.422342 241.171753
19 241.149185 -0.042021 -3.300071 -178.667953 -1.835447 -27.422350 241.171753
[L_weapon_bone]
18 156.183838 0.000000 0.000000 0.000014 0.000007 0.000001 156.183838
19 156.183838 0.000000 0.000000 0.000014 0.000007 0.000001 156.183838
[L_front_hand01_01]
18 86.095154 20.947098 -0.655860 -0.289102 -0.524108 66.611076 88.609184
19 86.095154 20.947098 -0.655860 -0.291918 -0.522544 67.227623 88.609184
[L_front_hand02_01]
18 86.935165 -11.437475 24.513514 142.580521 -55.269005 -47.395390 91.046425
19 86.935165 -11.437475 24.513514 143.299149 -55.645802 -48.269920 91.046425
[L_front_hand03_01]
18 86.637497 -14.123976 -20.424902 -142.879883 53.494282 -49.391994 90.126129
19 86.637497 -14.123976 -20.424902 -143.556351 53.862476 -50.232788 90.126129
[L_front_hand01_02]
18 71.020905 -0.000179 0.000030 0.000315 -0.002326 -105.441971 71.020905
19 71.020905 -0.000179 0.000030 0.000316 -0.002326 -105.462708 71.020905
[L_front_hand02_02]
18 71.020927 -0.000119 0.000060 0.000315 -0.002326 -105.441971 71.020927
19 71.020927 -0.000119 0.000060 0.000316 -0.002326 -105.462708 71.020927
[L_front_hand03_02]
18 71.020905 -0.000060 0.000060 0.000315 -0.002326 -105.441971 71.020905
19 71.020905 -0.000060 0.000060 0.000316 -0.002326 -105.462708 71.020905
[R_forearm]
18 322.776428 -0.000060 0.000030 0.209504 0.012586 -94.339050 322.776428
19 322.776428 -0.000060 0.000030 0.209504 0.012586 -94.339050 322.776428
[R_front_hand]
18 238.847015 -0.006795 2.210259 -2.635298 -10.645461 -26.312506 238.857239
19 238.847015 -0.006795 2.210259 -2.635298 -10.645461 -26.312506 238.857239
[R_weapon_bone]
18 155.664093 0.002503 -0.000030 0.003487 0.001180 -90.988930 155.664078
19 155.664093 0.002503 -0.000030 0.003487 0.001180 -90.988930 155.664078
[R_front_hand01_01]
18 87.624611 14.231146 22.918642 -140.217056 -53.925083 44.603291 91.683487
19 87.624611 14.231146 22.918642 -141.470367 -54.661602 46.147430 91.683487
[R_front_hand02_01]
18 89.356956 14.367283 -19.491137 140.984955 52.347897 47.247559 92.579636
19 89.356956 14.367283 -19.491137 142.182632 53.068485 48.753605 92.579636
[R_front_hand03_01]
18 87.286232 -22.307278 -0.143439 0.075044 -0.448119 -64.698715 90.091743
19 87.286232 -22.307278 -0.143439 0.083738 -0.444647 -65.861671 90.091743
[R_front_hand01_02]
18 71.020905 0.000060 0.000119 0.002323 -0.000334 106.381714 71.020905
19 71.020905 0.000060 0.000119 0.002323 -0.000334 106.381714 71.020905
[R_front_hand02_02]
18 71.020844 -0.000030 -0.000119 0.002323 -0.000334 106.381714 71.020836
19 71.020844 -0.000030 -0.000119 0.002323 -0.000334 106.381714 71.020836
[R_front_hand03_02]
18 71.020905 0.000000 0.000030 0.002323 -0.000334 106.381714 71.020905
19 71.020905 0.000000 0.000030 0.002323 -0.000334 106.381714 71.020905
[null_rope01_connect]
18 328.732483 0.000000 -0.000238 -137.481232 -55.751598 175.466385 328.732483
19 328.732483 0.000000 -0.000238 -137.507233 -54.474804 175.395996 328.732483
[Rope1_Seg01]
18 -0.000038 -0.000114 0.000106 116.266708 47.754337 142.579285 0.000161
19 -0.000038 -0.000114 0.000107 114.285782 49.670635 139.161987 0.000161
[Rope1_Seg02]
18 139.999863 -0.000179 0.000000 -0.185813 -5.338803 5.399069 139.999863
19 139.999863 -0.000179 0.000000 -0.263549 -4.775035 5.643065 139.999863
[Rope1_Seg03]
18 139.999924 0.000060 -0.000060 -0.698849 -8.693229 9.066553 139.999924
19 139.999924 0.000060 -0.000060 -0.589916 -7.438487 9.233697 139.999924
[Rope1_Seg04]
18 139.999924 -0.000060 -0.000119 -1.466135 -13.075056 17.722628 139.999924
19 139.999924 -0.000060 -0.000119 -0.191757 -9.817246 17.378706 139.999924
[Rope1_Seg05]
18 139.999832 0.000119 -0.000060 -10.918856 -21.841894 13.978951 139.999832
19 139.999832 0.000119 -0.000060 -11.356117 -23.033808 14.894158 139.999832
[Rope1_Seg06]
18 139.999954 0.000119 -0.000060 -10.268826 -9.602382 1.683695 139.999954
19 139.999954 0.000119 -0.000060 -11.168931 -10.639794 2.247722 139.999954
[Rope1_Seg07]
18 139.999985 0.000060 0.000000 -5.926372 -4.666200 0.738976 139.999985
19 139.999985 0.000060 0.000000 -6.291903 -4.845347 0.788683 139.999985
[Rope1_Seg09]
18 121.602913 0.000119 -0.000089 -89.793175 -1.359789 0.847147 121.602913
19 121.602913 0.000119 -0.000089 -89.793175 -1.359789 0.847147 121.602913
[L_mid_hand01]
18 103.859421 1.038730 8.195221 129.242493 -66.931091 -37.458961 104.187431
19 103.859421 1.038730 8.195221 130.544373 -67.584534 -38.866943 104.187431
[L_mid_hand02]
18 105.572853 -4.139662 -10.864139 -168.136536 43.236561 -72.353096 106.211075
19 105.572853 -4.139662 -10.864139 -168.923172 43.409309 -73.498886 106.211075
[L_mid_hand03]
18 104.641464 17.579376 -3.913581 -6.285013 17.719217 74.000862 106.179977
19 104.641464 17.579376 -3.913581 -6.012627 17.808174 74.893669 106.179977
[null_rope02_connect]
18 328.732849 0.000179 -0.000119 -121.305580 44.723183 19.746204 328.732849
19 328.732849 0.000179 -0.000119 -122.178986 43.606361 19.205738 328.732849
[Rope2_Seg01]
18 -0.000055 0.000134 0.000153 -54.685543 40.867928 41.904041 0.000210
19 -0.000053 0.000134 0.000153 -54.249542 42.729126 43.440487 0.000210
[Rope2_Seg02]
18 139.999741 -0.000060 -0.000119 -0.359220 -4.145674 2.994262 139.999756
19 139.999741 -0.000060 -0.000119 -0.289069 -4.474436 2.878996 139.999756
[Rope2_Seg03]
18 140.000107 0.000030 0.000000 -0.529418 -6.949474 5.148911 140.000107
19 140.000107 0.000030 0.000000 -0.463783 -7.225497 4.933503 140.000107
[Rope2_Seg04]
18 139.999802 0.000000 -0.000060 -0.607249 -10.774144 13.397503 139.999802
19 139.999802 0.000000 -0.000060 -0.675285 -12.728137 12.572695 139.999802
[Rope2_Seg05]
18 139.999985 -0.000060 0.000119 -7.759178 -34.747387 10.493507 139.999985
19 139.999985 -0.000060 0.000119 -8.007209 -33.313271 8.379401 139.999985
[Rope2_Seg06]
18 139.999893 -0.000030 -0.000119 -4.770190 -8.805337 0.304608 139.999893
19 139.999893 -0.000030 -0.000119 -4.307709 -8.011917 0.283639 139.999893
[Rope2_Seg07]
18 139.999893 0.000060 -0.000060 -2.159452 -3.684147 0.264139 139.999893
19 139.999893 0.000060 -0.000060 -2.161136 -3.537398 0.172331 139.999893
[Rope2_Seg09]
18 121.338966 0.000089 -0.000060 33.793236 -1.359788 -0.847141 121.338966
19 121.338966 0.000089 -0.000060 33.793236 -1.359788 -0.847141 121.338966
[R_mid_hand01]
18 104.680779 11.144459 -10.335981 -24.361835 42.075401 58.684284 105.778534
19 104.680779 11.144459 -10.335981 -20.399694 43.830383 64.493835 105.778534
[R_mid_hand02]
18 104.070427 2.443552 8.231699 59.930573 -60.321301 27.236141 104.424065
19 104.070427 2.443552 8.231699 55.242626 -64.206024 32.532070 104.424065
[R_mid_hand03]
18 106.028137 -11.221827 -5.996406 -174.631485 14.897616 -67.203407 106.788818
19 106.028137 -11.221827 -5.996406 -175.861618 15.275425 -71.940262 106.788818
[spine02]
18 129.756927 0.001550 0.000119 -1.023899 -3.926965 6.770993 129.756927
19 129.756927 0.001550 0.000119 -1.023899 -3.926965 6.770993 129.756927
[spine03]
18 78.613846 0.087372 -4.898873 1.040680 4.146419 4.212375 78.766380
19 78.613846 0.087372 -4.898873 1.040681 4.146420 4.212376 78.766380
[pelvis]
18 169.435242 0.051022 0.000000 0.019518 -0.190233 -10.721436 169.435257
19 169.435242 0.051022 0.000000 0.019518 -0.190233 -10.721436 169.435257
[null_rope03_connect]
18 -1.257226 -2.466202 137.391083 -148.996323 -87.995132 -107.160522 137.418976
19 -1.257226 -2.466202 137.391083 -148.996323 -87.995132 -107.160522 137.418976
[null_rope04_connect]
18 -1.259640 -2.480268 -137.844437 -148.996323 -87.995132 -107.160522 137.872513
19 -1.259640 -2.480268 -137.844437 -148.996323 -87.995132 -107.160522 137.872513
[Rope3_Seg01]
18 0.000000 0.000000 0.000000 -140.852661 -46.467743 -70.067673 0.000000
19 0.000000 0.000000 0.000000 -139.672577 -46.491982 -71.761093 0.000000
[Rope3_Seg02]
18 139.999924 -0.000119 0.000060 -14.324362 4.343092 -32.149010 139.999924
19 139.999924 -0.000119 0.000060 -14.049397 3.792966 -33.196980 139.999924
[Rope3_Seg03]
18 139.999924 -0.000119 0.000119 -52.438511 14.101599 -42.879192 139.999924
19 139.999924 -0.000119 0.000119 -52.776409 12.654668 -43.116531 139.999924
[Rope3_Seg04]
18 139.999924 0.000119 0.000000 -28.139833 26.125076 -10.819631 139.999924
19 139.999924 0.000119 0.000000 -28.606886 25.582232 -10.402271 139.999924
[Rope3_Seg05]
18 139.999924 -0.000238 0.000060 -10.408904 33.007896 4.070141 139.999924
19 139.999924 -0.000238 0.000060 -10.169565 33.039368 5.398871 139.999924
[Rope3_Seg06]
18 139.999893 -0.000119 -0.000060 -0.376742 13.374509 4.335624 139.999893
19 139.999893 -0.000119 -0.000060 -0.312950 13.556058 4.941576 139.999893
[Rope3_Seg07]
18 139.999771 0.000060 -0.000119 0.580591 5.969682 1.983301 139.999771
19 139.999771 0.000060 -0.000119 0.603582 6.012862 2.217582 139.999771
[Rope3_Seg08]
18 139.999985 -0.000060 0.000000 0.683052 3.176245 1.020044 139.999985
19 139.999985 -0.000060 0.000000 0.696589 3.195201 1.144236 139.999985
[Rope3_Seg09]
18 90.185997 -0.000179 -0.000060 89.793228 -1.359877 -0.847183 90.185997
19 90.185997 -0.000179 -0.000060 89.793228 -1.359877 -0.847183 90.185997
[R_rear_hand01]
18 103.366196 -6.073594 -10.757982 -174.043228 23.976637 -65.002998 104.101845
19 103.366196 -6.073594 -10.757982 -175.914093 24.346796 -69.567566 104.101845
[R_rear_hand02]
18 100.509819 12.039542 -7.992327 -18.533085 34.659092 62.503902 101.543350
19 100.509819 12.039542 -7.992327 -15.704349 35.886925 67.395027 101.543350
[R_rear_hand03]
18 101.539970 5.215704 5.435467 76.952385 -63.971771 15.629117 101.819031
19 101.539970 5.215704 5.435467 74.640678 -68.020927 18.152246 101.819031
[Rope4_Seg01]
18 -0.000014 -0.000033 -0.000153 51.158741 -30.284964 -102.409355 0.000157
19 -0.000013 -0.000031 -0.000153 51.430984 -31.086910 -102.734726 0.000156
[Rope4_Seg02]
18 139.999985 0.000060 0.000119 16.706255 -53.283894 11.719151 139.999985
19 139.999985 0.000060 0.000119 16.651047 -52.139320 10.482091 139.999985
[Rope4_Seg03]
18 139.999924 0.000000 -0.000238 42.011932 -29.246965 18.401028 139.999924
19 139.999924 0.000000 -0.000238 43.196278 -30.098772 17.742464 139.999924
[Rope4_Seg04]
18 139.999985 0.000000 0.000119 22.063982 -3.005987 18.618748 139.999985
19 139.999985 0.000000 0.000119 22.853382 -3.007174 18.869272 139.999985
[Rope4_Seg05]
18 139.999802 -0.000060 -0.000119 20.787594 9.129605 37.140057 139.999802
19 139.999802 -0.000060 -0.000119 20.916525 9.913895 37.196987 139.999802
[Rope4_Seg06]
18 139.999924 0.000000 0.000060 4.316215 12.339257 20.037354 139.999924
19 139.999924 0.000000 0.000060 4.228851 12.633468 19.700369 139.999924
[Rope4_Seg07]
18 139.999802 0.000000 0.000000 0.087786 4.824006 7.098396 139.999802
19 139.999802 0.000000 0.000000 0.080900 4.888640 6.959451 139.999802
[Rope4_Seg08]
18 139.999924 0.000000 0.000119 -1.770353 2.392408 3.547163 139.999924
19 139.999924 0.000000 0.000119 -1.765424 2.435756 3.482277 139.999924
[Rope4_Seg09]
18 90.185791 0.000060 0.000060 -135.617828 2.228885 0.850567 90.185791
19 90.185791 0.000060 0.000060 -135.617828 2.228885 0.850567 90.185791
[L_rear_hand01]
18 101.696655 -8.392275 -7.654577 -13.354956 -36.717747 108.641342 102.329041
19 101.696655 -8.392275 -7.654577 -12.874829 -36.868488 107.832764 102.329041
[L_rear_hand02]
18 102.726799 -1.568258 5.773216 72.111618 71.190071 159.144638 102.900848
19 102.726799 -1.568258 5.773216 71.484581 71.816628 158.486160 102.900848
[L_rear_hand03]
18 104.552910 9.721220 -10.420293 -177.406540 -24.537506 -106.814919 105.519653
19 104.552910 9.721220 -10.420293 -177.714203 -24.565960 -106.089035 105.519653
